<svg xmlns="http://www.w3.org/2000/svg"  viewBox="0 0 16 16" width="16px" height="16px"><path fill="#8bb7f0" d="M1.5 1.5H14.5V14.5H1.5z"/><path fill="#4e7ab5" d="M14,2v12H2V2H14 M15,1H1v14h14V1L15,1z"/><path fill="#fff" d="M3 7.036L5.075 7.036 5.075 11.159 5.075 13 3 13zM4.037 6L4.037 6C3.415 6 3 5.559 3 5.015s.415-.959 1.037-.959S5.049 4.47 5.075 5.015C5.075 5.559 4.686 6 4.037 6zM12 13H9.952c0 0 0-3.098 0-3.328S9.926 8.648 9.056 8.648c-.768 0-.896.742-.896 1.024s0 3.328 0 3.328H6.112V7.112H8.16v.794c0 0 .41-.794 1.613-.794 1.229 0 2.227.845 2.227 2.56V13z"/></svg>